<svg xmlns="http://www.w3.org/2000/svg" xmlns:xlink="http://www.w3.org/1999/xlink" viewBox="0 0 2141.74 1301.13"><defs><style>.cls-1{fill:none;}.cls-2{isolation:isolate;}.cls-3{font-size:371.35px;fill:#e00b1e;}.cls-3,.cls-5{font-family:RacingSansOne-Regular, Racing Sans One;}.cls-4{letter-spacing:-0.02em;}.cls-5{font-size:72px;fill:#1d1e1c;}.cls-6{letter-spacing:-0.03em;}.cls-7{letter-spacing:-0.02em;}.cls-8{letter-spacing:-0.01em;}.cls-9{letter-spacing:-0.03em;}.cls-10{letter-spacing:-0.01em;}.cls-11{letter-spacing:-0.01em;}.cls-12{letter-spacing:-0.02em;}.cls-13{letter-spacing:-0.01em;}.cls-14{letter-spacing:-0.01em;}.cls-15{fill:url(#linear-gradient);}.cls-16{fill:url(#linear-gradient-2);}.cls-17,.cls-19,.cls-22,.cls-23,.cls-26,.cls-28,.cls-31,.cls-33{stroke:#1d1d1b;stroke-miterlimit:10;stroke-width:0.93px;}.cls-17,.cls-22,.cls-26,.cls-31{opacity:0.4;}.cls-17{fill:url(#linear-gradient-3);}.cls-18{font-size:557.6px;fill:#b2b2b2;font-family:Impact;}.cls-19,.cls-23,.cls-28,.cls-33{mix-blend-mode:color-dodge;}.cls-19{fill:url(#linear-gradient-4);}.cls-20{fill:url(#linear-gradient-5);}.cls-21{fill:url(#linear-gradient-6);}.cls-22{fill:url(#linear-gradient-7);}.cls-23{fill:url(#linear-gradient-8);}.cls-24{fill:url(#linear-gradient-9);}.cls-25{fill:url(#linear-gradient-10);}.cls-26{fill:url(#linear-gradient-11);}.cls-27{clip-path:url(#clip-path);}.cls-28{fill:url(#linear-gradient-13);}.cls-29{fill:url(#linear-gradient-14);}.cls-30{fill:url(#linear-gradient-15);}.cls-31{fill:url(#linear-gradient-16);}.cls-32{clip-path:url(#clip-path-2);}.cls-33{fill:url(#linear-gradient-18);}</style><linearGradient id="linear-gradient" x1="246.34" y1="878.58" x2="246.34" y2="287.78" gradientUnits="userSpaceOnUse"><stop offset="0" stop-color="#575756"/><stop offset="0.15" stop-color="#575756"/><stop offset="0.26" stop-color="#1d1d1b"/><stop offset="1"/></linearGradient><linearGradient id="linear-gradient-2" x1="345.47" y1="867.8" x2="345.47" y2="261.07" gradientUnits="userSpaceOnUse"><stop offset="0" stop-color="#c6c6c6"/><stop offset="1" stop-color="#706f6f"/></linearGradient><linearGradient id="linear-gradient-3" x1="345.47" y1="536.87" x2="345.47" y2="279.72" gradientUnits="userSpaceOnUse"><stop offset="0" stop-color="#575756"/><stop offset="0.11" stop-color="#6a6a69"/><stop offset="0.3" stop-color="#848483"/><stop offset="0.47" stop-color="#939392"/><stop offset="0.61" stop-color="#999998"/><stop offset="0.78" stop-color="#979796"/><stop offset="0.84" stop-color="#90908f"/><stop offset="0.88" stop-color="#858584"/><stop offset="0.92" stop-color="#747473"/><stop offset="0.95" stop-color="#5e5e5d"/><stop offset="0.97" stop-color="#434341"/><stop offset="1" stop-color="#242422"/><stop offset="1" stop-color="#1d1d1b"/></linearGradient><linearGradient id="linear-gradient-4" x1="345.47" y1="536.87" x2="345.47" y2="279.72" gradientUnits="userSpaceOnUse"><stop offset="0" stop-color="#575756"/><stop offset="0.08" stop-color="#6a6a69"/><stop offset="0.22" stop-color="#848483"/><stop offset="0.35" stop-color="#939392"/><stop offset="0.45" stop-color="#999998"/><stop offset="0.56" stop-color="#969695"/><stop offset="0.66" stop-color="#8b8b8a"/><stop offset="0.75" stop-color="#7a7a79"/><stop offset="0.84" stop-color="#626261"/><stop offset="0.92" stop-color="#434341"/><stop offset="1" stop-color="#1d1d1b"/><stop offset="1" stop-color="#1d1d1b"/></linearGradient><linearGradient id="linear-gradient-5" x1="796.03" y1="878.58" x2="796.03" y2="287.78" xlink:href="#linear-gradient"/><linearGradient id="linear-gradient-6" x1="895.16" y1="867.8" x2="895.16" y2="261.07" xlink:href="#linear-gradient-2"/><linearGradient id="linear-gradient-7" x1="895.16" y1="536.87" x2="895.16" y2="279.72" xlink:href="#linear-gradient-3"/><linearGradient id="linear-gradient-8" x1="895.16" y1="536.87" x2="895.16" y2="279.72" xlink:href="#linear-gradient-4"/><linearGradient id="linear-gradient-9" x1="1345.71" y1="878.58" x2="1345.71" y2="287.78" xlink:href="#linear-gradient"/><linearGradient id="linear-gradient-10" x1="1444.84" y1="867.8" x2="1444.84" y2="261.07" xlink:href="#linear-gradient-2"/><linearGradient id="linear-gradient-11" x1="1444.84" y1="536.87" x2="1444.84" y2="279.72" xlink:href="#linear-gradient-3"/><clipPath id="clip-path" transform="translate(-99.13 18.75)"><rect class="cls-1" x="1206.47" y="269.03" width="476.75" height="590.8" rx="10.62"/></clipPath><linearGradient id="linear-gradient-13" x1="1444.84" y1="536.87" x2="1444.84" y2="279.72" xlink:href="#linear-gradient-4"/><linearGradient id="linear-gradient-14" x1="1895.4" y1="878.58" x2="1895.4" y2="287.78" xlink:href="#linear-gradient"/><linearGradient id="linear-gradient-15" x1="1994.53" y1="867.8" x2="1994.53" y2="261.07" xlink:href="#linear-gradient-2"/><linearGradient id="linear-gradient-16" x1="1994.53" y1="536.87" x2="1994.53" y2="279.72" xlink:href="#linear-gradient-3"/><clipPath id="clip-path-2" transform="translate(-99.13 18.75)"><rect class="cls-1" x="1756.15" y="269.03" width="476.75" height="590.8" rx="10.62"/></clipPath><linearGradient id="linear-gradient-18" x1="1994.53" y1="536.87" x2="1994.53" y2="279.72" xlink:href="#linear-gradient-4"/></defs><g class="cls-2"><g id="Layer_1" data-name="Layer 1"><text class="cls-3" transform="translate(61.86 1195.67)">CENTENNIA<tspan class="cls-4" x="1879.03" y="0">L</tspan></text><text class="cls-5" transform="translate(1303.14 1268.31)"><tspan class="cls-6">A</tspan><tspan class="cls-7" x="41.47" y="0"> </tspan><tspan class="cls-8" x="53.78" y="0">J</tspan><tspan class="cls-9" x="95.83" y="0">AV</tspan><tspan class="cls-10" x="177.12" y="0">A</tspan><tspan x="219.89" y="0">SCRI</tspan><tspan class="cls-11" x="377.21" y="0">P</tspan><tspan class="cls-12" x="419.76" y="0">T</tspan><tspan x="457.99" y="0" xml:space="preserve"> P</tspan><tspan class="cls-13" x="514.94" y="0">R</tspan><tspan x="559.73" y="0">OJ</tspan><tspan class="cls-14" x="651.53" y="0">E</tspan><tspan x="686.88" y="0">C</tspan><tspan class="cls-12" x="732.88" y="0">T</tspan></text></g><g id="Layer_2" data-name="Layer 2"><text x="-99.13" y="18.75"/><rect class="cls-15" x="7.97" y="287.78" width="476.75" height="590.8" rx="10.62"/><path class="cls-16" d="M573.23,867.8H117.72a18.61,18.61,0,0,1-18.59-18.59V279.66a18.61,18.61,0,0,1,18.59-18.59H573.23a18.61,18.61,0,0,1,18.58,18.59V849.21A18.61,18.61,0,0,1,573.23,867.8ZM117.72,277a2.66,2.66,0,0,0-2.66,2.66V849.21a2.66,2.66,0,0,0,2.66,2.66H573.23a2.66,2.66,0,0,0,2.65-2.66V279.66a2.66,2.66,0,0,0-2.65-2.66Z" transform="translate(-99.13 18.75)"/><path class="cls-17" d="M560.66,279.77H130.28c-5.54,0-10-.92-10,4.5v252.6H570.69V284.27C570.69,278.85,566.2,279.77,560.66,279.77Z" transform="translate(-99.13 18.75)"/><text class="cls-18" transform="translate(96.87 817.82)">0</text><path class="cls-19" d="M560.66,279.77H130.28c-5.54,0-10-.92-10,4.5v252.6H570.69V284.27C570.69,278.85,566.2,279.77,560.66,279.77Z" transform="translate(-99.13 18.75)"/><rect class="cls-20" x="557.65" y="287.78" width="476.75" height="590.8" rx="10.62"/><path class="cls-21" d="M1122.91,867.8H667.4a18.6,18.6,0,0,1-18.58-18.59V279.66a18.6,18.6,0,0,1,18.58-18.59h455.51a18.61,18.61,0,0,1,18.59,18.59V849.21A18.61,18.61,0,0,1,1122.91,867.8ZM667.4,277a2.66,2.66,0,0,0-2.65,2.66V849.21a2.66,2.66,0,0,0,2.65,2.66h455.51a2.66,2.66,0,0,0,2.66-2.66V279.66a2.66,2.66,0,0,0-2.66-2.66Z" transform="translate(-99.13 18.75)"/><path class="cls-22" d="M1110.34,279.77H680c-5.54,0-10-.92-10,4.5v252.6h450.44V284.27C1120.38,278.85,1115.88,279.77,1110.34,279.77Z" transform="translate(-99.13 18.75)"/><text class="cls-18" transform="translate(686.85 817.82)">7</text><path class="cls-23" d="M1110.34,279.77H680c-5.54,0-10-.92-10,4.5v252.6h450.44V284.27C1120.38,278.85,1115.88,279.77,1110.34,279.77Z" transform="translate(-99.13 18.75)"/><rect class="cls-24" x="1107.34" y="287.78" width="476.75" height="590.8" rx="10.62"/><path class="cls-25" d="M1672.6,867.8H1217.09a18.61,18.61,0,0,1-18.59-18.59V279.66a18.61,18.61,0,0,1,18.59-18.59H1672.6a18.6,18.6,0,0,1,18.58,18.59V849.21A18.6,18.6,0,0,1,1672.6,867.8ZM1217.09,277a2.66,2.66,0,0,0-2.66,2.66V849.21a2.66,2.66,0,0,0,2.66,2.66H1672.6a2.66,2.66,0,0,0,2.65-2.66V279.66a2.66,2.66,0,0,0-2.65-2.66Z" transform="translate(-99.13 18.75)"/><path class="cls-26" d="M1660,279.77H1229.66c-5.55,0-10-.92-10,4.5v252.6h450.44V284.27C1670.06,278.85,1665.57,279.77,1660,279.77Z" transform="translate(-99.13 18.75)"/><g class="cls-27"><text class="cls-18" transform="translate(1203.22 499.2)">4</text><text class="cls-18" transform="translate(1203.22 1072.78)">5</text></g><path class="cls-25" d="M1672.6,867.8H1217.09a18.61,18.61,0,0,1-18.59-18.59V279.66a18.61,18.61,0,0,1,18.59-18.59H1672.6a18.6,18.6,0,0,1,18.58,18.59V849.21A18.6,18.6,0,0,1,1672.6,867.8ZM1217.09,277a2.66,2.66,0,0,0-2.66,2.66V849.21a2.66,2.66,0,0,0,2.66,2.66H1672.6a2.66,2.66,0,0,0,2.65-2.66V279.66a2.66,2.66,0,0,0-2.65-2.66Z" transform="translate(-99.13 18.75)"/><path class="cls-28" d="M1660,279.77H1229.66c-5.55,0-10-.92-10,4.5v252.6h450.44V284.27C1670.06,278.85,1665.57,279.77,1660,279.77Z" transform="translate(-99.13 18.75)"/><rect class="cls-29" x="1657.02" y="287.78" width="476.75" height="590.8" rx="10.62"/><path class="cls-30" d="M2222.28,867.8H1766.77a18.61,18.61,0,0,1-18.58-18.59V279.66a18.61,18.61,0,0,1,18.58-18.59h455.51a18.61,18.61,0,0,1,18.59,18.59V849.21A18.61,18.61,0,0,1,2222.28,867.8ZM1766.77,277a2.66,2.66,0,0,0-2.65,2.66V849.21a2.66,2.66,0,0,0,2.65,2.66h455.51a2.66,2.66,0,0,0,2.66-2.66V279.66a2.66,2.66,0,0,0-2.66-2.66Z" transform="translate(-99.13 18.75)"/><path class="cls-31" d="M2209.72,279.77H1779.34c-5.54,0-10-.92-10,4.5v252.6h450.44V284.27C2219.75,278.85,2215.26,279.77,2209.72,279.77Z" transform="translate(-99.13 18.75)"/><g class="cls-32"><text class="cls-18" transform="translate(1752.91 499.2)">8</text><text class="cls-18" transform="translate(1752.91 1072.78)">9</text></g><path class="cls-30" d="M2222.28,867.8H1766.77a18.61,18.61,0,0,1-18.58-18.59V279.66a18.61,18.61,0,0,1,18.58-18.59h455.51a18.61,18.61,0,0,1,18.59,18.59V849.21A18.61,18.61,0,0,1,2222.28,867.8ZM1766.77,277a2.66,2.66,0,0,0-2.65,2.66V849.21a2.66,2.66,0,0,0,2.65,2.66h455.51a2.66,2.66,0,0,0,2.66-2.66V279.66a2.66,2.66,0,0,0-2.66-2.66Z" transform="translate(-99.13 18.75)"/><path class="cls-33" d="M2209.72,279.77H1779.34c-5.54,0-10-.92-10,4.5v252.6h450.44V284.27C2219.75,278.85,2215.26,279.77,2209.72,279.77Z" transform="translate(-99.13 18.75)"/></g></g></svg>